<svg xmlns="http://www.w3.org/2000/svg" width="600" height="150" viewBox="0 0 600 150">
  <defs>
    <linearGradient id="turban" x1="0%" y1="0%" x2="0%" y2="100%">
      <stop offset="0%" stop-color="#F5A623"/>
      <stop offset="100%" stop-color="#E8871E"/>
    </linearGradient>
  </defs>
  <!-- icon: simplified turban/flame silhouette with tilak -->
  <g transform="translate(10,15)">
    <path d="M60 10 C30 10 15 35 15 60 C15 85 35 105 60 108 C85 105 105 85 105 60 C105 35 90 10 60 10 Z" fill="url(#turban)"/>
    <path d="M60 10 C45 20 40 40 45 55 C50 40 55 25 60 10 Z" fill="#FFFFFF" opacity="0.25"/>
    <circle cx="60" cy="55" r="7" fill="#D64545"/>
    <path d="M60 62 L54 78 L66 78 Z" fill="#FFFFFF"/>
  </g>
  <!-- wordmark -->
  <text x="135" y="78" font-family="Arial, Helvetica, sans-serif" font-weight="700" font-size="46" fill="#1B1B1B">Shubharay</text>
  <text x="135" y="118" font-family="Arial, Helvetica, sans-serif" font-weight="700" font-size="34" fill="#E8871E">Math</text>
</svg>
